<svg width="128" height="128" xmlns="http://www.w3.org/2000/svg"><path stroke="null" id="svg_9" d="m47.433368,127.706728c-1.054226,0 -2.066346,-0.36904 -2.811533,-1.027989l-14.769488,-13.045943l-12.277321,12.829561c-0.754721,0.788499 -1.865352,1.243671 -3.036361,1.243671c-7.300136,0 -13.240186,-5.235183 -13.240186,-11.669921l0,-103.063646c0,-6.434738 5.939255,-11.670621 13.240186,-11.670621l98.931181,0c7.300136,0 13.239391,5.235183 13.239391,11.670621l0,103.064347c0,6.434738 -5.939255,11.669921 -13.239391,11.669921c-1.151942,0 -2.246685,-0.441167 -3.001405,-1.207958l-12.630053,-12.843566l-14.096595,12.971714c-0.746776,0.687661 -1.781141,1.077708 -2.862378,1.079109c-0.002383,0 -0.003972,0 -0.006356,0c-1.078853,0 -2.111629,-0.387247 -2.860789,-1.071406l-14.115662,-12.911492l-13.553991,12.864574c-0.73486,0.697464 -1.759691,1.100817 -2.839339,1.118324c-0.022244,0.0007 -0.046078,0.0007 -0.069911,0.0007zm50.551991,-22.748819c0.032572,0 0.065939,0.0007 0.098511,0.001401c1.116987,0.023809 2.170418,0.462175 2.902894,1.206557l14.083089,14.321126c2.140229,-0.598727 3.694954,-2.367597 3.694954,-4.449486l0,-103.065047c0,-2.573475 -2.375384,-4.667968 -5.294962,-4.667968l-98.931181,0c-2.919578,0 -5.295756,2.093793 -5.295756,4.667968l0,103.064347c0,2.072785 1.540425,3.833953 3.66556,4.441083l13.66124,-14.276309c0.717382,-0.749284 1.758102,-1.200255 2.870322,-1.24087c1.111426,-0.040615 2.191868,0.331225 2.977572,1.025188l14.912488,13.172691l13.603246,-12.911492c0.742804,-0.705167 1.781935,-1.109921 2.8735,-1.119024c0.012711,0 0.024628,0 0.036544,0c1.078059,0 2.110835,0.386546 2.860789,1.071406l14.16015,12.952807l14.251511,-13.115269c0.750749,-0.690462 1.787497,-1.079109 2.869528,-1.079109zm-4.82783,-66.686265l-58.306549,0c-2.193457,0 -3.972215,-1.567894 -3.972215,-3.501327s1.778758,-3.501327 3.972215,-3.501327l58.306549,0c2.194251,0 3.972215,1.567894 3.972215,3.501327s-1.778758,3.501327 -3.972215,3.501327zm0,20.081508l-58.306549,0c-2.193457,0 -3.972215,-1.567894 -3.972215,-3.501327s1.778758,-3.501327 3.972215,-3.501327l58.306549,0c2.194251,0 3.972215,1.567894 3.972215,3.501327s-1.778758,3.501327 -3.972215,3.501327zm0,19.740479l-58.306549,0c-2.193457,0 -3.972215,-1.567194 -3.972215,-3.501327s1.778758,-3.501327 3.972215,-3.501327l58.306549,0c2.194251,0 3.972215,1.567194 3.972215,3.501327s-1.778758,3.501327 -3.972215,3.501327z"/></svg>
