<?xml version="1.0" standalone="no"?><!DOCTYPE svg PUBLIC "-//W3C//DTD SVG 1.1//EN" "http://www.w3.org/Graphics/SVG/1.1/DTD/svg11.dtd"><svg t="1596530492748" class="icon" viewBox="0 0 1024 1024" version="1.1" xmlns="http://www.w3.org/2000/svg" p-id="2172" width="128" height="128" xmlns:xlink="http://www.w3.org/1999/xlink"><defs><style type="text/css"></style></defs><path d="M87.07072 16.06656l-5.82656 5.82656 1.34144 38.30784c2.24256 65.85344 15.67744 109.312 50.176 161.50528 13.21984 20.16256 30.01344 37.85728 148.28544 156.57984L414.55616 512l-75.71456 75.71456-75.71456 75.71456-15.01184-3.80928c-12.76928-3.35872-25.98912-4.03456-85.11488-4.03456L92.88704 655.36l-5.376 5.60128c-3.584 3.35872-5.60128 7.84384-5.60128 12.544 0 6.49216 4.70016 12.09344 40.76544 48.384L163.66592 762.88l-67.87072 67.87072c-37.18144 37.18144-69.66272 71.00416-72.13056 75.03872-10.752 17.69472-13.44512 31.80544-13.44512 71.00416V1013.76h35.38944c63.17056-0.22528 60.03712 1.56672 146.49344-84.67456l68.98688-68.77184L302.08 901.30432c36.29056 36.06528 41.89184 40.76544 48.384 40.76544 4.70016 0 9.18528-2.01728 12.76928-5.60128l5.60128-5.82656-0.67584-74.37312c-0.67584-59.81184-1.56672-76.38016-4.48512-84.67456l-3.35872-10.52672 75.71456-75.71456L512 609.44384l75.48928 75.48928 75.264 75.264-3.584 17.24416c-3.13344 13.66016-3.80928 29.78816-3.80928 85.34016v68.32128l5.60128 5.376c3.35872 3.584 7.84384 5.60128 12.544 5.60128 6.49216 0 12.09344-4.70016 48.384-40.76544L762.88 860.32384l68.98688 68.77184c86.46656 86.24128 83.33312 84.44928 146.71872 84.67456H1013.76v-35.38944c-0.22528-63.17056 1.56672-60.02688-84.67456-146.49344L860.32384 762.88l40.99072-40.99072c36.06528-36.29056 40.76544-41.89184 40.76544-48.384 0-4.70016-2.01728-9.18528-5.60128-12.544l-5.376-5.60128h-68.32128c-55.552 0-71.68 0.67584-85.34016 3.80928l-17.24416 3.584-75.264-75.264L609.44384 512l133.49888-133.72416c118.272-118.72256 135.07584-136.41728 148.28544-156.57984 34.49856-52.19328 47.93344-95.65184 50.176-161.50528l1.34144-38.30784-5.82656-5.82656c-4.03456-3.80928-8.28416-5.82656-13.21984-5.82656-6.71744 0-23.52128 16.128-209.43872 202.04544L512 414.55616 309.72928 212.28544C123.81184 26.368 107.008 10.24 100.29056 10.24c-4.93568 0-9.18528 2.01728-13.21984 5.82656z m376.09472 447.09888L440.32 486.23616 306.14528 351.83616C187.19744 232.67328 170.40384 214.97856 158.30016 196.15744c-21.504-33.14688-35.38944-72.13056-39.19872-109.76256l-1.56672-14.56128 184.35072 184.12544L486.23616 440.32l-23.07072 22.84544z m439.71584-365.568c-6.05184 41.89184-22.40512 80.18944-48.15872 114.46272-6.05184 7.84384-123.42272 126.78144-260.95616 264.09984L343.77728 725.92384l-8.28416-10.07616c-10.30144-12.544-14.78656-17.01888-27.33056-27.33056l-10.07616-8.28416 303.5136-303.53408C768.48128 209.8176 905.33888 73.40032 905.56416 73.85088c0.45056 0.45056-0.6656 11.20256-2.68288 23.74656zM655.36 609.65888l70.56384 70.56384-8.96 7.168c-11.42784 8.96-20.61312 18.14528-29.57312 29.57312l-7.168 8.96-71.22944-71.00416L537.76384 583.68l22.40512-22.40512c12.31872-12.31872 22.84544-22.40512 23.52128-22.40512s32.9216 31.81568 71.66976 70.78912z m-400.50688 87.808c35.38944 12.99456 58.91072 36.29056 71.68 71.68 4.03456 10.752 4.92544 19.48672 5.60128 55.32672 0.67584 23.296 0.67584 45.25056 0.22528 48.83456-0.67584 5.60128-8.50944-1.56672-94.75072-88.25856l-94.07488-94.08512 49.28512 0.89088c42.98752 0.68608 50.83136 1.36192 62.03392 5.61152z m531.54816 87.808l-94.08512 94.07488-0.67584-40.54016c-0.22528-22.39488 0.45056-45.91616 1.56672-52.19328 8.96-48.15872 43.68384-83.54816 90.94144-93.184 4.92544-0.90112 28.672-1.792 52.64384-2.01728l43.68384-0.22528-94.07488 94.08512z m-573.66528 26.66496l22.17984 22.39488-53.76 55.552C94.68928 979.03616 96.256 977.69472 64.67584 977.92H46.08v-18.59584c0-30.23872 0.67584-31.36512 76.38016-105.05216 36.29056-35.38944 66.304-64.512 66.97984-64.512s11.20256 10.07616 23.296 22.17984z m688.80384 42.10688c75.03872 73.472 76.38016 75.264 76.38016 105.27744V977.92h-18.37056c-32.48128 0-23.74656 6.94272-144.03584-115.80416L788.64384 834.56l22.40512-22.39488c12.31872-12.31872 23.07072-22.17984 23.97184-21.95456 0.88064 0.45056 30.67904 29.11232 66.51904 63.83616z" p-id="2173"></path></svg>