<svg viewBox="0 0 1028 1024" version="1.1" xmlns="http://www.w3.org/2000/svg" width="128" height="128"><path d="M995.880239 307.620972L716.166886 28.035051l-27.397891-27.971335-31.220852 30.711124 28.035051 27.971336L470.860188 273.532898l-398.862321 398.798605a198.602852 198.602852 0 1 0 279.713353 279.58592l398.86232-398.86232 214.723007-214.786723 28.035051 27.971335 30.583692-30.711124zM298.826918 531.519086L382.932072 447.477648 539.673495 604.346503l45.875539-45.429526-156.741423-156.868855 77.733551-78.24328 93.025397 92.643102 45.238379-45.365811L552.4167 278.375316l83.467994-84.041438 157.378583 156.868855 45.238379-45.36581-156.741423-156.932571 47.149859-47.149859 191.785237 191.848953-429.446013 429.764593z" p-id="2074"/></svg>
