<svg width="128" height="128" xmlns="http://www.w3.org/2000/svg"><path stroke="null" id="svg_4" d="m84.988022,63.528079l-38.592793,0c-3.552418,0 -6.432635,2.880217 -6.432635,6.432635l0,32.160159c0,3.552418 2.878709,6.432635 6.432635,6.432635l38.592793,0c3.552418,0 6.432635,-2.880217 6.432635,-6.432635l0,-32.161666c-0.001507,-3.552418 -2.880217,-6.431127 -6.432635,-6.431127zm-6.432635,32.160159l-25.727524,0l0,-19.296397l25.727524,0l0,19.296397zm-6.432635,-70.752952l-12.863762,0c-10.657254,0 -19.296397,8.639143 -19.296397,19.296397l0,6.432635c0,3.552418 2.878709,6.432635 6.432635,6.432635l38.592793,0c3.552418,0 6.432635,-2.880217 6.432635,-6.432635l0,-6.432635c-0.001507,-10.657254 -8.64065,-19.296397 -19.297904,-19.296397zm-12.862255,90.049348c0,-3.546389 2.884738,-6.432635 6.432635,-6.432635l12.863762,0c3.546389,0 6.432635,2.884738 6.432635,6.432635l-32.161666,0l6.432635,0z"/><path stroke="null" id="svg_5" d="m119.262751,62.932743c-0.313493,-3.302226 -3.0867,-5.822228 -6.402491,-5.822228l-4.800361,0l-3.798088,-45.557462c-0.275814,-3.333877 -3.062585,-5.897586 -6.40852,-5.897586l-17.151683,0c0,-3.552418 -2.878709,-6.432635 -6.432635,-6.432635l-17.151683,0c-3.552418,0 -6.432635,2.878709 -6.432635,6.432635l-17.151683,0c-3.345935,0 -6.132706,2.565217 -6.40852,5.897586l-3.798088,45.557462l-4.800361,0c-3.315791,0 -6.088998,2.521508 -6.402491,5.822228l-4.290935,45.023921a6.436403,6.436403 0 0 0 1.644331,4.937514a6.436704,6.436704 0 0 0 4.759667,2.10402l6.800386,0l-0.358708,6.052826c-0.102488,1.769427 0.526005,3.502681 1.742297,4.789811a6.428716,6.428716 0 0 0 4.679787,2.021125l77.184079,0c1.770934,0 3.465002,-0.730981 4.679787,-2.021125c1.216292,-1.28713 1.844786,-3.021891 1.742297,-4.789811l-0.358708,-6.052826l6.800386,0c1.811628,0 3.540361,-0.764139 4.759667,-2.10402a6.44017,6.44017 0 0 0 1.644331,-4.937514l-4.289428,-45.023921zm-15.736443,39.200186c-1.770934,0 -3.465002,0.730981 -4.679787,2.021125c-1.216292,1.28713 -1.844786,3.021891 -1.742297,4.789811l0.358708,6.052826l-63.542614,0l0.358708,-6.052826c0.102488,-1.769427 -0.526005,-3.502681 -1.742297,-4.789811a6.428716,6.428716 0 0 0 -4.679787,-2.021125l-6.548687,0l3.062585,-32.160159l4.872706,0c3.345935,0 6.132706,-2.565217 6.40852,-5.897586l3.798088,-45.557462l17.66563,0c3.552418,0 6.432635,-2.878709 6.432635,-6.432635l4.287921,0c0,3.552418 2.878709,6.432635 6.432635,6.432635l17.664123,0l3.798088,45.557462c0.275814,3.333877 3.062585,5.897586 6.40852,5.897586l4.872706,0l3.062585,32.160159l-6.548687,0z"/></svg>
