<svg width="128" height="128" xmlns="http://www.w3.org/2000/svg">
   <path stroke="null" id="svg_10" p-id="2881" d="m65.161414,15.916643l18.969614,-13.370715l4.012622,20.560583l23.418697,-3.172553l-5.153052,23.221585l20.447948,5.566047l-15.290203,15.501394l14.562769,17.040739l-21.799569,8.400695l4.833919,21.363108l-23.113644,-4.44439l-5.481571,19.030624l-17.430269,-12.971799l-16.510416,14.900674l-7.870372,-20.959499l-21.222314,2.172917l2.064975,-23.831692l-19.457699,-4.66966l14.895981,-18.246872l-14.895981,-15.064933l23.137109,-9.94004l-6.54691,-21.086213l23.695591,5.528502l4.866771,-19.992715l19.866001,14.464213zm-2.229235,95.246984c25.920133,0 46.931256,-21.011123 46.931256,-46.931256s-21.011123,-46.931256 -46.931256,-46.931256s-46.931256,21.011123 -46.931256,46.931256s21.011123,46.931256 46.931256,46.931256z"/>
   <path stroke="null" id="svg_11" p-id="2882" d="m62.93218,101.777377a37.545005,37.545005 0 1 1 0,-75.09001a37.545005,37.545005 0 0 1 0,75.09001zm0,-3.266416a34.278589,34.278589 0 1 0 0,-68.557179a34.278589,34.278589 0 0 0 0,68.557179z"/>
   <path stroke="null" id="svg_12" p-id="2883" d="m64.917372,30.150893l-22.13278,22.334585l16.914025,1.492414l-7.968927,19.617265l15.299589,0l-4.364607,25.333492l26.408218,-27.375002l-15.487314,0l6.326333,-19.068169l-14.99923,0l0.004693,-22.334585z"/>
</svg>
