<svg  viewBox="0 0 1204 1024" xmlns="http://www.w3.org/2000/svg"  width="150.5" height="128"><path d="M1202.898824 543.804235s19.998118 80.414118-74.089412 119.868236c-99.809882 42.164706-756.796235 318.464-756.796236 318.464s-151.431529 94.930824-214.196705-105.050353C95.171765 676.924235 0 373.398588 0 373.398588l203.956706-53.850353-40.83953-135.168L1032.432941 0l170.465883 543.804235zM226.906353 843.655529s39.032471 152.335059 216.967529 56.801883l-55.958588 33.972706-159.623529-534.889412-131.132236 30.358588 129.746824 413.816471z m877.206588-224.316235s71.68-29.153882 48.429177-103.183059c-23.250824-74.029176-140.769882-449.716706-140.769883-449.716706l-758.543059 174.682353 44.574118 142.456471 159.804235 509.831529c22.829176-11.685647 50.176-24.756706 80.534589-39.03247l-103.002353-329.065412 305.392941-95.352471 93.244235 297.441883c145.408-59.632941 270.336-108.062118 270.336-108.062118z m-46.802823-270.637176l18.492235 58.849882-252.144941 84.931765-19.877647-63.36753 253.590588-80.414117z m-221.06353 184.139294l251.241412-87.883294 18.492235 58.849882-249.97647 92.340706-19.696941-63.307294zM486.460235 249.916235L523.444706 240.941176l54.332235 173.658353-41.743059 12.348236-59.753411-57.103059c-16.865882-16.022588-36.442353-35.719529-51.681883-54.272l-1.024 0.301176c8.734118 23.491765 17.227294 48.429176 26.322824 77.70353l16.865882 53.850353-38.610823 11.444706-56.560942-180.525177 49.694118-12.288 58.548706 55.296c16.564706 15.661176 33.731765 34.816 48.188235 52.284235l0.542118-0.180705a781.131294 781.131294 0 0 1-26.142118-72.402824l-16.022588-51.079529z m153.720471 111.616l67.764706-19.275294 9.758117 31.081412-105.833411 31.141647-53.850353-172.152471 103.785411-25.6 9.818353 31.021177-65.054117 16.685176 11.083294 35.297883 61.259294-16.143059 9.637647 30.780235-61.138823 16.865883 12.769882 40.357647z m160.587294-89.148235l7.408941 74.149647-38.610823 11.444706-89.810824-155.648 38.851765-9.637647 33.249882 64.813176c9.697882 18.733176 19.576471 39.032471 27.346824 54.934589l0.542117-0.120471a1152.481882 1152.481882 0 0 1-8.131764-60.656941l-7.649883-70.053647 36.924236-9.035294 33.370353 64.752941c9.336471 17.829647 16.986353 34.334118 24.877176 51.561412l0.361412-0.180706c-3.373176-18.492235-5.842824-38.128941-8.794353-58.127059l-8.252235-68.246588 33.972705-8.372706 11.926589 169.020235-36.382118 10.721882-34.635294-65.897411a704.331294 704.331294 0 0 1-22.889412-48.067765l-0.481882 0.120471c2.891294 19.034353 5.300706 35.056941 6.806588 52.525176z m154.804706-40.357647c-26.383059-2.951529-46.682353-13.251765-53.790118-35.900235-8.372706-26.925176 6.083765-52.404706 39.273412-60.476236a82.522353 82.522353 0 0 1 37.948235-1.14447l1.686589 29.81647a61.199059 61.199059 0 0 0-31.141648 0c-13.793882 3.433412-18.191059 12.288-15.781647 20.239059 2.951529 9.938824 12.167529 12.227765 32.948706 14.878118 27.587765 3.614118 43.128471 14.637176 49.874824 36.261647 7.951059 25.720471-2.469647 52.645647-40.357647 63.849412a87.943529 87.943529 0 0 1-43.248941 2.048l-2.590118-31.141647c9.999059 2.529882 24.997647 3.493647 38.550588-0.301177 14.516706-4.216471 20.058353-13.010824 16.865883-23.070118-3.011765-9.697882-11.504941-13.312-30.238118-15.058823z" p-id="4406"/></svg>
