<svg t="1597375872250" class="icon" viewBox="0 0 1024 1024" version="1.1" width="128" height="128">

  <path
    d="M933.645353 1023.996H91.558642c-26.502896 0-48.187812-21.684915-48.187811-48.187812V143.35944c0-26.503896 21.684915-48.187812 48.188811-48.187812h80.714685v48.187812c0 53.006793 43.369831 96.375624 97.580619 96.375624s97.580619-43.368831 97.580619-96.375624V96.375624h48.188811v48.188811c0 53.006793 43.368831 96.375624 97.579619 96.375624s97.581619-43.369831 97.581619-96.375624V96.375624h48.187812v48.188811c0 53.006793 43.369831 96.375624 97.580619 96.375624 54.211788 0 97.580619-43.369831 97.580619-96.375624V96.375624h80.715684c26.502896 0 48.187812 21.684915 48.187812 48.188811v831.243753c-1.204995 26.502896-22.889911 48.187812-49.392807 48.187812zM803.538861 367.433565H220.461139c-26.502896 0-48.187812 21.684915-48.187812 48.188811 0 26.502896 21.684915 48.187812 48.187812 48.187812H803.538861c26.502896 0 48.187812-21.684915 48.187812-48.187812 0-26.503896-21.684915-48.188812-48.187812-48.188811z m0 208.413186H220.461139c-26.502896 0-48.187812 21.684915-48.187812 48.188811 0 26.502896 21.684915 48.187812 48.187812 48.187812H803.538861c26.502896 0 48.187812-21.684915 48.187812-48.187812 0-26.503896-21.684915-48.188812-48.187812-48.188811z m8.432967 208.414185h-598.737661c-22.887911 0-40.95984 18.069929-40.95984 39.754845 0 21.684915 18.071929 39.754845 40.95984 39.754845h598.737661c22.889911 0 40.95984-18.069929 40.95984-39.754845-1.204995-21.684915-19.275925-39.754845-40.95984-39.754845zM755.349049 191.547252c-26.503896 0-48.188812-21.683915-48.188811-48.187812V48.187812C707.161238 21.684915 728.846153 0 755.350049 0s48.187812 21.684915 48.187812 48.187812v96.376623c0 25.298901-21.684915 46.982816-48.187812 46.982817z m-243.350049 0c-26.503896 0-48.187812-21.683915-48.187812-48.187812V48.187812C463.812188 21.684915 485.496104 0 512 0s48.187812 21.684915 48.187812 48.187812v96.376623c1.204995 25.298901-21.683915 46.982816-48.187812 46.982817z m-242.145054 0c-26.502896 0-48.187812-21.683915-48.187812-48.187812V48.187812C221.667134 21.684915 243.351049 0 269.854946 0s48.187812 21.684915 48.187812 48.187812v96.376623c0 25.298901-21.683915 46.982816-48.187812 46.982817z"
    p-id="3049"></path>
</svg>
